<svg width="776" height="776" viewBox="0 0 776 776" fill="none" xmlns="http://www.w3.org/2000/svg">
<rect width="776" height="776" rx="69" fill="#131113"/>
<path fill-rule="evenodd" clip-rule="evenodd" d="M407 251.24C394.786 247.747 382.125 246 369.017 246C329.812 246 296.342 259.837 268.605 287.512C240.868 315.187 227 348.583 227 387.7C227 426.551 240.868 459.813 268.605 487.488C296.342 515.163 329.812 529 369.017 529C381.786 529 394.447 527.45 407 524.351V469.334C394.339 473.986 381.678 476.312 369.017 476.312C344.214 476.312 323.145 467.663 305.809 450.367C288.474 433.07 279.806 412.181 279.806 387.7C279.806 363.218 288.474 342.196 305.809 324.633C323.145 307.337 344.214 298.688 369.017 298.688C383.078 298.688 395.739 301.292 407 306.499V251.24ZM496 466.575V467.076C496.078 466.961 496.155 466.847 496.232 466.732L496 466.575ZM549.5 364.948H496.694V313.856H549.5V364.948ZM549.5 467.53H496.694V416.439H549.5V467.53Z" fill="#F9956A"/>
<path d="M155 80H80V155" stroke="#E2E2E2" stroke-width="20"/>
<path d="M621 80H696V155" stroke="#E2E2E2" stroke-width="20"/>
<path d="M155 696H80V621" stroke="#E2E2E2" stroke-width="20"/>
<path d="M621 696H696V621" stroke="#E2E2E2" stroke-width="20"/>
</svg>
